Coordinates
version=1
nRows=11
nColumns=63
inDegrees=yes

Units are S.I. units (second, meters, Newtons, ...)
If the header above contains a line with 'inDegrees', this indicates whether rotational values are in degrees (yes) or radians (no).

endheader
time	pelvis_tilt	pelvis_list	pelvis_rotation	pelvis_tx	pelvis_ty	pelvis_tz	hip_flexion_r	hip_adduction_r	hip_rotation_r	knee_angle_r	knee_angle_r_beta	ankle_angle_r	subtalar_angle_r	mtp_angle_r	hip_flexion_l	hip_adduction_l	hip_rotation_l	knee_angle_l	knee_angle_l_beta	ankle_angle_l	subtalar_angle_l	mtp_angle_l	L5_S1_Flex_Ext	L5_S1_Lat_Bending	L5_S1_axial_rotation	L4_L5_Flex_Ext	L4_L5_Lat_Bending	L4_L5_axial_rotation	L3_L4_Flex_Ext	L3_L4_Lat_Bending	L3_L4_axial_rotation	L2_L3_Flex_Ext	L2_L3_Lat_Bending	L2_L3_axial_rotation	L1_L2_Flex_Ext	L1_L2_Lat_Bending	L1_L2_axial_rotation	L1_T12_Flex_Ext	L1_T12_Lat_Bending	L1_T12_axial_rotation	Abs_r3	Abs_r2	Abs_r1	Abs_t1	Abs_t2	neck_flexion	neck_bending	neck_rotation	arm_flex_r	arm_add_r	arm_rot_r	elbow_flex_r	pro_sup_r	wrist_flex_r	wrist_dev_r	arm_flex_l	arm_add_l	arm_rot_l	elbow_flex_l	pro_sup_l	wrist_flex_l	wrist_dev_l
      2.21666667	     -0.82588472	     -6.06107565	     76.18463574	      0.19147087	      0.90520957	      0.56431603	     14.41386045	      5.39478021	     11.89940371	     14.36442492	      0.25070651	     33.75063373	     -0.33199712	      0.00000000	     11.97277221	     -6.32585059	     -7.18294111	     11.73346161	      0.20478754	     37.20661513	     13.74728938	      0.00000000	      0.06828139	      0.29486123	     -0.70985350	      0.12680537	      0.39216544	     -0.75421935	      0.11217950	      0.71692560	     -0.75421935	      0.07803880	      0.71692560	     -0.62112182	      0.06340610	      0.60128103	     -0.57675597	      0.03901599	      0.45674005	     -0.53239013	      0.48772715	      3.33552923	     -3.94799223	      0.00000000	      0.00000000	     22.25861279	      6.27981860	     -6.71601603	     52.08656167	    -38.00267427	     15.80165979	     96.22424329	     59.59652760	     -3.07054674	     -4.95587156	     11.82334942	    -15.05568480	     13.18095463	    124.49813605	     88.17095316	     -7.79268952	     -8.17208765
      2.23333333	     -0.65775830	     -5.91785516	     75.54431024	      0.19134255	      0.90471360	      0.56473185	     13.92520349	      5.81181541	     13.51515776	     13.29686622	      0.23207410	     33.26499371	     -2.68220354	      0.00000000	     11.54608557	     -6.50655066	     -6.42318184	     11.46731286	      0.20014237	     37.49263434	     12.95786561	      0.00000000	      0.07501898	      0.34524960	     -0.57359888	      0.13931775	      0.45918197	     -0.60944881	      0.12324868	      0.83943988	     -0.60944881	      0.08573919	      0.83943988	     -0.50189902	      0.06966263	      0.70403299	     -0.46604909	      0.04286585	      0.53479163	     -0.43019916	      0.53585307	      3.90553254	     -3.19018491	      0.00000000	      0.00000000	     23.03729742	      6.57098253	     -6.04578307	     49.78028466	    -37.84631494	     13.46830208	     97.96818477	     63.63868168	     -4.65048325	     -5.43373270	     12.96374512	    -16.43165608	     15.61989351	    124.36516246	     87.89371433	     -9.62416641	    -10.86399474
      2.25000000	     -0.37076311	     -5.83232457	     75.10404279	      0.19090260	      0.90436195	      0.56469568	     13.22731874	      6.33961586	     15.86016007	     11.97135367	      0.20893954	     32.47456662	     -6.52245901	      0.00000000	     11.15247416	     -6.75176064	     -5.30636642	     11.21190869	      0.19568472	     37.67929558	     11.79265229	      0.00000000	      0.08641165	      0.41902207	     -0.50741641	      0.16047508	      0.55729935	     -0.53912994	      0.14196571	      1.01881026	     -0.53912994	      0.09875988	      1.01881026	     -0.44398936	      0.08024186	      0.85446981	     -0.41227584	      0.04937562	      0.64906519	     -0.38056231	      0.61722980	      4.74006146	     -2.82209787	      0.00000000	      0.00000000	     23.65140286	      6.84818205	     -4.84763584	     48.23464153	    -37.55668185	     12.08986233	     99.28876086	     66.44526890	     -5.52918786	     -4.47089533	     13.76883429	    -17.73711364	     17.86925558	    124.43950200	     87.45568235	    -12.41220686	    -13.04011379
      2.26666667	     -0.14694630	     -5.84572660	     74.64385174	      0.19043636	      0.90386222	      0.56482615	     13.05076063	      6.63459177	     15.69137425	     11.50396588	      0.20078208	     32.82266990	     -6.93941516	      0.00000000	     10.93361942	     -7.04235550	     -5.26139985	     11.11527486	      0.19399814	     37.95267938	     11.63725267	      0.00000000	      0.10798415	      0.48827189	     -0.49152418	      0.20053736	      0.64940161	     -0.52224444	      0.17740715	      1.18718427	     -0.52224444	      0.12341508	      1.18718427	     -0.43008366	      0.10027408	      0.99568403	     -0.39936340	      0.06170214	      0.75633315	     -0.36864314	      0.77131995	      5.52342925	     -2.73371003	      0.00000000	      0.00000000	     24.08923786	      6.71623359	     -4.28898172	     47.50551779	    -37.15839931	     12.12645387	     99.72233906	     66.49870570	     -5.44053074	     -4.38416204	     13.80451076	    -18.64602906	     18.42241704	    124.90760612	     87.33843862	    -12.35530936	    -13.04711582
      2.28333333	      0.36716507	     -5.83038622	     74.35504831	      0.18914895	      0.90372313	      0.56433529	     12.02982446	      7.10470044	     16.67457390	      9.83478947	      0.17164946	     32.29778779	     -8.86290487	      0.00000000	     10.57015281	     -7.48155024	     -4.66820032	     10.94108545	      0.19095796	     38.11655196	     10.96257578	      0.00000000	      0.11860171	      0.62261512	     -0.47197175	      0.22025523	      0.82807810	     -0.50146998	      0.19485074	      1.51382639	     -0.50146998	      0.13554989	      1.51382639	     -0.41297528	      0.11013354	      1.26963674	     -0.38347705	      0.06776902	      0.96443081	     -0.35397881	      0.84716013	      7.04314671	     -2.62496528	      0.00000000	      0.00000000	     24.35773241	      6.68521442	     -1.07636729	     47.14479723	    -36.65137002	     12.05217263	    100.13858762	     67.09876046	     -4.55176179	     -1.55036709	     13.22541834	    -18.69424209	     18.51914778	    125.31802358	     86.64901908	    -13.89526901	    -11.81716033
      2.30000000	      0.49575815	     -5.82539760	     74.09969150	      0.18858691	      0.90325706	      0.56473476	     11.83842746	      7.33364566	     16.51716824	      9.72644395	      0.16975847	     32.65839495	     -9.59889283	      0.00000000	     10.41431530	     -7.61486932	     -4.53561411	     10.88491414	      0.18997759	     38.33129687	     10.82455914	      0.00000000	      0.13890127	      0.67921421	     -0.46114162	      0.25795354	      0.90335490	     -0.48996297	      0.22820089	      1.65144144	     -0.48996297	      0.15875026	      1.65144144	     -0.40349892	      0.12898372	      1.38505362	     -0.37467756	      0.07936818	      1.05210282	     -0.34585621	      0.99215785	      7.68340702	     -2.56473134	      0.00000000	      0.00000000	     24.67791183	      6.40595742	     -0.66850874	     46.60422690	    -35.63921776	     12.17354185	     99.72212836	     67.12234693	     -4.38669072	     -1.06493624	     12.78352876	    -18.78999700	     17.87680030	    125.30411360	     86.60834197	    -14.30133596	    -11.44817449
      2.31666667	      0.71770373	     -5.81638816	     74.23451355	      0.18727665	      0.90279687	      0.56454438	     11.05924409	      7.69833478	     19.35734558	      8.89956491	      0.15532671	     31.28980987	    -14.84961437	      0.00000000	     10.25978108	     -7.58413258	     -2.57054861	     10.71167157	      0.18695394	     38.19889933	      9.00777917	      0.00000000	      0.15296428	      0.78000777	     -0.71737607	      0.28406997	      1.03741034	     -0.76221207	      0.25130502	      1.89651090	     -0.76221207	      0.17482288	      1.89651090	     -0.62770406	      0.14204263	      1.59059185	     -0.58286806	      0.08740379	      1.20823204	     -0.53803205	      1.09260858	      8.82360393	     -3.98983048	      0.00000000	      0.00000000	     24.68550098	      6.30652106	      3.32293138	     47.36509271	    -33.09181980	     12.69988936	     98.43141795	     67.77957203	     -0.45827111	      3.13842102	     10.77455902	    -18.49547360	     14.65951537	    126.65139269	     87.23490009	    -14.73721634	     -6.47416593
      2.33333333	      0.69148329	     -5.70370367	     74.07683548	      0.18661994	      0.90255836	      0.56503214	     10.83515669	      7.73009299	     18.57749957	      9.28670468	      0.16208357	     31.25276902	    -15.17446780	      0.00000000	     10.05879464	     -7.45817124	     -2.46910942	     10.61057759	      0.18518951	     38.23134676	      9.01616042	      0.00000000	      0.16334057	      0.81583825	     -0.74568752	      0.30333977	      1.08506487	     -0.79229300	      0.26835222	      1.98362911	     -0.79229300	      0.18668193	      1.98362911	     -0.65247658	      0.15167805	      1.66365735	     -0.60587111	      0.09333280	      1.26373344	     -0.55926564	      1.16672533	      9.22892541	     -4.14729031	      0.00000000	      0.00000000	     24.93685938	      5.69172604	      3.89494273	     46.64611503	    -31.30171152	     12.64732773	     97.68821049	     67.45908784	     -0.49092765	      3.83221891	     10.38693428	    -18.15489369	     12.96097503	    126.19736725	     87.12490202	    -14.98631471	     -5.83937403
      2.35000000	      0.35359582	     -5.70512470	     74.39224166	      0.18547222	      0.90169417	      0.56558152	     11.19583318	      7.38166889	     16.40271723	     10.44869182	      0.18236407	     31.83056034	    -14.34221639	      0.00000000	     10.20337524	     -6.95730704	     -1.90339343	     10.51244517	      0.18347678	     38.23770383	      9.10618276	      0.00000000	      0.19825115	      0.82598312	     -1.03803911	      0.36817221	      1.09855755	     -1.10291656	      0.32570681	      2.00829536	     -1.10291656	      0.22658124	      2.00829536	     -0.90828423	      0.18409602	      1.68434478	     -0.84340678	      0.11328071	      1.27944786	     -0.77852934	      1.41608813	      9.34368628	     -5.77326215	      0.00000000	      0.00000000	     25.26183294	      5.90008965	      6.48845757	     46.85880304	    -28.34239386	     13.29061809	     96.49474016	     65.04096915	      0.74920889	      7.98542791	      9.18493372	    -18.30785981	      9.30554105	    126.93191126	     87.16252013	    -12.65166856	     -2.10008298
      2.36666667	      0.07657376	     -5.47854225	     74.57230008	      0.18465686	      0.90136632	      0.56646908	     11.44296388	      7.02664920	     14.42435520	     11.76800499	      0.20539043	     32.13112145	    -13.43448161	      0.00000000	     10.06554030	     -6.48681281	     -1.57717618	     10.36290499	      0.18086681	     38.17451579	      9.22604598	      0.00000000	      0.20235097	      0.80706492	     -1.10564404	      0.37578600	      1.07339635	     -1.17474679	      0.33244242	      1.96229765	     -1.17474679	      0.23126693	      1.96229765	     -0.96743853	      0.18790312	      1.64576679	     -0.89833578	      0.11562335	      1.25014356	     -0.82923303	      1.44537278	      9.12967981	     -6.14926045	      0.00000000	      0.00000000	     25.70989149	      5.78370434	      6.72868279	     45.97448543	    -26.12321625	     12.78695907	     95.56353193	     62.87282606	      0.89438139	      8.88928044	      9.68272047	    -18.39188999	      7.48235092	    126.22479642	     86.73056191	    -10.30372162	     -0.45596333
      2.38333333	      0.02404954	     -5.34868525	     74.62032886	      0.18368169	      0.90109356	      0.56726656	     11.85237780	      6.72848817	     11.50838777	     13.08341444	      0.22834866	     32.72825017	    -10.41910756	      0.00000000	      9.98264246	     -6.27006262	     -1.40723518	     10.28720214	      0.17954555	     38.22956599	      9.20102752	      0.00000000	      0.21108060	      0.81051187	     -1.08873724	      0.39199777	      1.07798079	     -1.15678332	      0.34678431	      1.97067857	     -1.15678332	      0.24124401	      1.97067857	     -0.95264509	      0.19600944	      1.65279581	     -0.88459901	      0.12061145	      1.25548289	     -0.81655293	      1.50772758	      9.16867240	     -6.05522992	      0.00000000	      0.00000000	     26.07327392	      5.77685087	      6.38755792	     45.51406273	    -24.54853062	     12.79464543	     94.14289485	     60.66992841	      0.83468525	      7.76580219	     10.67076630	    -18.15899003	      6.20845363	    125.08902881	     85.42080855	     -7.18546079	      1.21188956
